<svg xmlns="http://www.w3.org/2000/svg" width="50.997" height="49.974" viewBox="0 0 50.997 49.974">
  <g id="AFTER" transform="translate(3 3)">
    <g id="Ellipse_36" data-name="Ellipse 36" fill="#a87eb7" stroke="#fff" stroke-width="3">
      <ellipse cx="22.498" cy="21.987" rx="22.498" ry="21.987" stroke="none"/>
      <ellipse cx="22.498" cy="21.987" rx="23.998" ry="23.487" fill="none"/>
    </g>
    <g id="Group_67" data-name="Group 67" transform="translate(6.836 12.897)">
      <path id="Path_56" data-name="Path 56" d="M103.268,158.911H99.084l-1.663-4.327H89.806l-1.572,4.327h-4.08l7.42-19.049h4.067Zm-7.082-7.537-2.625-7.069-2.573,7.069Z" transform="translate(-84.154 -139.862)" fill="#fff" opacity="0.5"/>
      <path id="Path_57" data-name="Path 57" d="M307.363,206.032l3.638.611a5.968,5.968,0,0,1-2.215,3.047A6.508,6.508,0,0,1,305,210.735a6.174,6.174,0,0,1-5.328-2.352,7.9,7.9,0,0,1-1.364-4.756,7.62,7.62,0,0,1,1.793-5.373,5.906,5.906,0,0,1,4.535-1.943,6.126,6.126,0,0,1,4.86,2.034q1.78,2.034,1.7,6.231h-9.148a3.693,3.693,0,0,0,.884,2.527,2.763,2.763,0,0,0,2.1.9,2.235,2.235,0,0,0,1.442-.468A2.89,2.89,0,0,0,307.363,206.032Zm.208-3.69a3.515,3.515,0,0,0-.819-2.41,2.635,2.635,0,0,0-3.872.045,3.368,3.368,0,0,0-.767,2.365h5.457Z" transform="translate(-279.574 -191.374)" fill="#fff" opacity="0.5"/>
    </g>
  </g>
</svg>
