<svg xmlns="http://www.w3.org/2000/svg" width="50.997" height="49.974" viewBox="0 0 50.997 49.974">
  <g id="BRIDGE" transform="translate(3 3)">
    <g id="Ellipse_34" data-name="Ellipse 34" transform="translate(0)" fill="#df871e" stroke="#fff" stroke-width="3">
      <ellipse cx="22.498" cy="21.987" rx="22.498" ry="21.987" stroke="none"/>
      <ellipse cx="22.498" cy="21.987" rx="23.998" ry="23.487" fill="none"/>
    </g>
    <g id="_552233" data-name="552233" transform="translate(-87.118 -130.398)">
      <g id="Group_163" data-name="Group 163" transform="translate(96.345 141.804)">
        <path id="Path_198" data-name="Path 198" d="M96.345,141.8h8.294a23.958,23.958,0,0,1,3.673.205,5.4,5.4,0,0,1,2.166.856,5.326,5.326,0,0,1,1.592,1.734,4.7,4.7,0,0,1,.637,2.427,4.919,4.919,0,0,1-2.916,4.5,5.462,5.462,0,0,1,2.916,1.882,5,5,0,0,1,1.019,3.128,6.167,6.167,0,0,1-.658,2.753,5.546,5.546,0,0,1-1.8,2.137,5.935,5.935,0,0,1-2.81.984q-1.048.113-5.053.142H96.345Zm4.19,3.454v4.8h2.746q2.449,0,3.043-.071a2.77,2.77,0,0,0,1.691-.743,2.191,2.191,0,0,0,.616-1.621,2.277,2.277,0,0,0-.531-1.564,2.4,2.4,0,0,0-1.578-.729q-.623-.071-3.581-.071Zm0,8.252v5.548h3.878a18.95,18.95,0,0,0,2.873-.127,2.6,2.6,0,0,0,1.522-.828,2.55,2.55,0,0,0,.587-1.762,2.707,2.707,0,0,0-.453-1.585,2.562,2.562,0,0,0-1.309-.948,14.233,14.233,0,0,0-3.715-.3h-3.383Z" transform="translate(-96.345 -141.804)" fill="#efc38f"/>
        <path id="Path_199" data-name="Path 199" d="M312.448,216.377h-3.977V201.346h3.694v2.137a6.422,6.422,0,0,1,1.706-2,3.138,3.138,0,0,1,1.72-.481,5.049,5.049,0,0,1,2.618.75l-1.231,3.468a3.491,3.491,0,0,0-1.868-.651,2.208,2.208,0,0,0-1.415.46,3.144,3.144,0,0,0-.913,1.663,23.621,23.621,0,0,0-.333,5.039v4.642Z" transform="translate(-289.199 -195.627)" fill="#efc38f"/>
      </g>
    </g>
  </g>
</svg>
