<svg xmlns="http://www.w3.org/2000/svg" width="52.019" height="50.997" viewBox="0 0 52.019 50.997">
  <g id="DREAM" transform="translate(3 3)">
    <g id="Ellipse_36" data-name="Ellipse 36" transform="translate(0)" fill="#8dc652" stroke="#fff" stroke-width="3">
      <ellipse cx="23.01" cy="22.498" rx="23.01" ry="22.498" stroke="none"/>
      <ellipse cx="23.01" cy="22.498" rx="24.51" ry="23.998" fill="none"/>
    </g>
    <path id="Path_61" data-name="Path 61" d="M83.388,166.285h5.728a11.194,11.194,0,0,1,2.954.3,5.2,5.2,0,0,1,2.34,1.429,6.785,6.785,0,0,1,1.482,2.515,11.455,11.455,0,0,1,.508,3.669,10.2,10.2,0,0,1-.477,3.3,6.844,6.844,0,0,1-1.662,2.742,5.512,5.512,0,0,1-2.2,1.239,9.478,9.478,0,0,1-2.774.328h-5.9Zm3.134,2.626v10.281h2.34a8.539,8.539,0,0,0,1.9-.148,2.893,2.893,0,0,0,1.265-.646,3.287,3.287,0,0,0,.821-1.5,10.124,10.124,0,0,0,.318-2.843,9.272,9.272,0,0,0-.318-2.764,3.552,3.552,0,0,0-.889-1.5,2.984,2.984,0,0,0-1.451-.731,14.218,14.218,0,0,0-2.573-.148Z" transform="translate(-74.75 -150.619)" fill="#fff" opacity="0.5"/>
    <path id="Path_62" data-name="Path 62" d="M238.42,226.979l-3.558-11.245h2.891l2.107,7.37,1.938-7.37h2.869l1.874,7.37,2.149-7.37h2.933l-3.611,11.245h-2.859l-1.938-7.232-1.906,7.232Z" transform="translate(-213.12 -195.79)" fill="#fff" opacity="0.5"/>
  </g>
</svg>
