<svg id="edu" xmlns="http://www.w3.org/2000/svg" width="82.5" height="82.5" viewBox="0 0 82.5 82.5">
  <path id="Path_177" data-name="Path 177" d="M60.871,9.412a25.18,25.18,0,0,1,7.412,17.871A25.288,25.288,0,0,1,43,2,25.18,25.18,0,0,1,60.871,9.412Z" transform="translate(12.887 -0.669)" fill="#fcd770"/>
  <path id="Path_178" data-name="Path 178" d="M46.154,2A25.288,25.288,0,0,0,71.437,27.282a127.373,127.373,0,0,0-28.8,20.439L34.125,39.2a4.361,4.361,0,0,0-.665-2.715,4.31,4.31,0,0,0,3.38-4.2V30.263a4.31,4.31,0,0,0-3.38-4.2,4.307,4.307,0,0,0,.12-4.431A128.188,128.188,0,0,0,46.154,2Z" transform="translate(9.733 -0.669)" fill="#e6e9ed"/>
  <path id="Path_179" data-name="Path 179" d="M35.283,29.96,43.8,38.476c-.918.865-1.81,1.73-2.7,2.621s-1.756,1.783-2.621,2.7L29.96,35.283a4.309,4.309,0,0,0,2.648-1.237l1.437-1.437a4.309,4.309,0,0,0,1.238-2.648Z" transform="translate(8.575 8.575)" fill="#ffeaa7"/>
  <path id="Path_180" data-name="Path 180" d="M39.2,34.125l8.516,8.516a127.374,127.374,0,0,0-20.439,28.8A25.305,25.305,0,0,1,2,46.154,127.937,127.937,0,0,0,21,34.072l-5.7,9.421,5.323-1.331,2.661,5.323,4.418-11.5a4.157,4.157,0,0,0,2.555.852h2.023a4.31,4.31,0,0,0,4.2-3.38A4.361,4.361,0,0,0,39.2,34.125Z" transform="translate(-0.669 9.733)" fill="#e6e9ed"/>
  <path id="Path_181" data-name="Path 181" d="M43.935,26.956v2.023a4.31,4.31,0,0,1-3.38,4.2,4.361,4.361,0,0,1,.665,2.715,4.309,4.309,0,0,1-1.237,2.648l-1.437,1.437A4.309,4.309,0,0,1,35.9,41.221a4.361,4.361,0,0,1-2.715-.665,4.31,4.31,0,0,1-4.2,3.38H26.956a4.157,4.157,0,0,1-2.555-.852,4.276,4.276,0,0,1-1.65-2.528,4.3,4.3,0,0,1-4.671-.027,3.377,3.377,0,0,1-.692-.546l-1.437-1.437a3.377,3.377,0,0,1-.546-.692,4.3,4.3,0,0,1-.027-4.671,4.276,4.276,0,0,1-2.528-1.65A4.157,4.157,0,0,1,12,28.979V26.956a4.31,4.31,0,0,1,3.38-4.2,4.317,4.317,0,0,1,.572-5.363l1.437-1.437a4.317,4.317,0,0,1,5.363-.572,4.31,4.31,0,0,1,4.2-3.38h2.023a4.31,4.31,0,0,1,4.2,3.38,4.317,4.317,0,0,1,5.363.572l1.437,1.437a3.851,3.851,0,0,1,.692.931,4.307,4.307,0,0,1-.12,4.431,4.31,4.31,0,0,1,3.38,4.2Z" transform="translate(2.637 2.637)" fill="#ff826e"/>
  <circle id="Ellipse_48" data-name="Ellipse 48" cx="8" cy="8" r="8" transform="translate(22 21.688)" fill="#fcd770"/>
  <path id="Path_182" data-name="Path 182" d="M22.752,33.467a4.276,4.276,0,0,0,1.65,2.528l-4.418,11.5-2.661-5.323L12,43.5l5.7-9.421.386-.639a4.3,4.3,0,0,0,4.671.027Z" transform="translate(2.637 9.726)" fill="#ffeaa7"/>
  <path id="Path_183" data-name="Path 183" d="M18.052,33,7.992,39.082l1.331-5.323L4,31.1,15.5,26.68a4.276,4.276,0,0,0,2.528,1.65A4.3,4.3,0,0,0,18.052,33Z" transform="translate(-0.008 7.491)" fill="#ffeaa7"/>
  <path id="Path_184" data-name="Path 184" d="M56.887,1h-.809l-.373.719A126.51,126.51,0,0,1,44.259,19.8l-1.142-1.142a5.68,5.68,0,0,0-5.561-1.418,5.672,5.672,0,0,0-4.935-2.929H30.59a5.672,5.672,0,0,0-4.935,2.929,5.677,5.677,0,0,0-5.561,1.418l-1.437,1.437a5.674,5.674,0,0,0-1.418,5.562,5.672,5.672,0,0,0-2.931,4.935V32.62a5.523,5.523,0,0,0,.327,1.838L1.7,39.429l7.068,3.534L6.911,50.378l11.851-7.154L19.8,44.267A126.807,126.807,0,0,1,1.719,55.705L1,56.078v.809A26.643,26.643,0,0,0,27.613,83.5h.809l.373-.719A125.651,125.651,0,0,1,82.781,28.795l.719-.373v-.809A26.643,26.643,0,0,0,56.887,1ZM80.776,26.212A23.945,23.945,0,0,1,58.288,3.724,23.959,23.959,0,0,1,80.776,26.212ZM46.19,38.986a5.625,5.625,0,0,0-.217-1.429,5.674,5.674,0,0,0,2.93-4.935V30.59a5.671,5.671,0,0,0-2.93-4.935,5.71,5.71,0,0,0-.132-3.525A129.147,129.147,0,0,0,55.958,6.783,26.637,26.637,0,0,0,77.694,28.536,128.848,128.848,0,0,0,53.384,46.179Zm-29.222-8.4a2.991,2.991,0,0,1,2.333-2.9l1.859-.411-1.025-1.6a2.987,2.987,0,0,1,.4-3.7l1.437-1.437a3,3,0,0,1,3.7-.4l1.6,1.025.411-1.858a2.989,2.989,0,0,1,2.9-2.333H32.62a2.99,2.99,0,0,1,2.9,2.333l.411,1.858,1.6-1.025a2.993,2.993,0,0,1,3.7.4l1.437,1.437a2.991,2.991,0,0,1,.4,3.7l-1.025,1.6,1.859.411a2.991,2.991,0,0,1,2.333,2.9V32.62a2.991,2.991,0,0,1-2.333,2.9l-1.859.411,1.025,1.6a2.987,2.987,0,0,1-.4,3.7l-1.437,1.437a2.991,2.991,0,0,1-3.7.4l-1.6-1.025-.411,1.858a2.989,2.989,0,0,1-2.9,2.334H30.59a2.99,2.99,0,0,1-2.9-2.333l-.411-1.858-1.6,1.025a2.988,2.988,0,0,1-3.7-.4l-1.437-1.437a2.991,2.991,0,0,1-.4-3.7l1.025-1.6L19.3,35.522a2.991,2.991,0,0,1-2.333-2.9Zm5.265,15.286a5.722,5.722,0,0,0,3.42.1,5.644,5.644,0,0,0,.818,1.116l-3.01,7.832-1.788-3.578-3.229.808ZM8.287,39.748l7.834-3.01a5.658,5.658,0,0,0,1.116.818,5.691,5.691,0,0,0,.1,3.42l-6.277,3.791.806-3.231ZM26.813,80.825a23.985,23.985,0,0,1-23.14-23.14,129.561,129.561,0,0,0,13.133-7.973L12.829,56.3l7.416-1.854,3.534,7.067,4.97-12.935a5.516,5.516,0,0,0,1.838.326h2.032a5.672,5.672,0,0,0,4.935-2.929,5.721,5.721,0,0,0,1.426.214l7.2,7.2A129.107,129.107,0,0,0,26.813,80.825ZM48.018,51.459l-6.037-6.037a5.5,5.5,0,0,0,1.136-.866l1.437-1.437a5.5,5.5,0,0,0,.868-1.136l6.037,6.037q-1.752,1.687-3.441,3.44Z" transform="translate(-1 -1)"/>
  <path id="Path_185" data-name="Path 185" d="M26.315,35.629A9.315,9.315,0,1,0,17,26.315,9.326,9.326,0,0,0,26.315,35.629Zm0-15.968a6.653,6.653,0,1,1-6.653,6.653A6.661,6.661,0,0,1,26.315,19.661Z" transform="translate(4.29 4.29)"/>
  <path id="Path_186" data-name="Path 186" d="M43.574,12.9l-2.237-1.442q-.715,1.108-1.449,2.2l2.206,1.486Q42.847,14.032,43.574,12.9Z" transform="translate(11.858 2.458)"/>
  <path id="Path_187" data-name="Path 187" d="M41.325,16.273l-2.178-1.528q-.756,1.078-1.536,2.138l2.145,1.575Q40.552,17.373,41.325,16.273Z" transform="translate(11.105 3.545)"/>
  <path id="Path_188" data-name="Path 188" d="M27.633,43.379q-1.07,1.351-2.108,2.73l2.129,1.6q1.016-1.353,2.065-2.676Z" transform="translate(7.109 13.012)"/>
  <path id="Path_189" data-name="Path 189" d="M23.346,49.13l2.186,1.521q.948-1.365,1.929-2.7l-2.145-1.575Q24.315,47.738,23.346,49.13Z" transform="translate(6.389 14.002)"/>
  <path id="Path_190" data-name="Path 190" d="M21.158,59.118a18.711,18.711,0,0,1-10.046-5.755L9.14,55.147A21.339,21.339,0,0,0,21.656,61.91l.918.141.45-.813c1.947-3.525,4.072-6.994,6.317-10.307l-2.2-1.492c-2.113,3.118-4.121,6.371-5.979,9.679Z" transform="translate(1.691 15.016)"/>
</svg>
