<?xml version="1.0" encoding="utf-8"?>
<!-- Generator: Adobe Illustrator 16.0.0, SVG Export Plug-In . SVG Version: 6.00 Build 0)  -->
<!DOCTYPE svg PUBLIC "-//W3C//DTD SVG 1.1//EN" "http://www.w3.org/Graphics/SVG/1.1/DTD/svg11.dtd">
<svg version="1.1" id="Layer_1" xmlns="http://www.w3.org/2000/svg" xmlns:xlink="http://www.w3.org/1999/xlink" x="0px" y="0px"
	 width="700.592px" height="690.78px" viewBox="168.875 0 700.592 690.78" enable-background="new 168.875 0 700.592 690.78"
	 xml:space="preserve">
<g id="fruits" transform="translate(-5984.169 -2139.037)">
	<path id="Path_192" fill="#F4EDC3" d="M6285.854,2706.507c156.929,151.691,406.949,147.689,558.953-8.756l8.692,8.402
		c-156.644,161.238-414.325,165.377-576.051,9.049c-161.726-156.327-166.339-414.004-10.507-576.028l8.692,8.402
		C6124.438,2304.801,6128.923,2554.815,6285.854,2706.507z"/>
	<path id="Path_193" fill="#6F9B5A" d="M6285.85,2706.503c-156.929-151.691-161.409-401.71-10.206-558.941l16.46,15.911
		c-142.411,148.139-138.182,383.67,9.654,526.571c147.836,142.9,383.373,139.135,526.594-8.223l16.461,15.912
		C6692.805,2854.185,6442.777,2858.193,6285.85,2706.503z"/>
	<path id="Path_194" fill="#B2D16B" d="M6330.793,2659.99c131.253,126.873,340.35,123.559,467.529-7.207l30.026,29.025
		c-143.22,147.357-378.751,151.117-526.587,8.215c-147.835-142.9-152.071-378.424-9.66-526.562l30.027,29.025
		C6195.755,2324.029,6199.541,2533.12,6330.793,2659.99z"/>
	<path id="Path_195" fill="#FFD585" d="M6330.787,2659.968c-131.254-126.872-135.028-335.97-8.655-467.515l476.194,460.298
		C6671.145,2783.517,6462.04,2786.841,6330.787,2659.968z M6728.157,2585.49l-336.42-325.19
		c-89.067,92.956-86.333,240.514,6.32,330.075C6490.711,2679.935,6638.278,2677.662,6728.157,2585.49z"/>
	<path id="Path_196" fill="#FFB84F" d="M6391.728,2260.248l336.415,325.186c-89.866,92.164-237.429,94.436-330.084,4.873
		C6305.403,2500.744,6302.668,2353.191,6391.728,2260.248z M6379.118,2503.869c-9.56,9.893-9.289,25.663,0.604,35.223
		c9.894,9.56,25.663,9.289,35.223-0.604c9.559-9.892,9.29-25.66-0.601-35.22C6404.45,2493.708,6388.68,2493.977,6379.118,2503.869z
		 M6646.023,2574.216c9.565-9.887,9.304-25.657-0.584-35.222s-25.657-9.304-35.223,0.583c-9.565,9.888-9.304,25.658,0.584,35.223
		c0.002,0.002,0.005,0.004,0.007,0.008c9.884,9.561,25.647,9.299,35.209-0.584
		C6646.02,2574.222,6646.021,2574.218,6646.023,2574.216L6646.023,2574.216z M6577.367,2507.852
		c9.565-9.888,9.304-25.658-0.584-35.223s-25.657-9.304-35.223,0.584s-9.305,25.657,0.583,35.223
		c0.003,0.002,0.005,0.005,0.008,0.007c9.884,9.562,25.647,9.3,35.209-0.583C6577.362,2507.856,6577.365,2507.854,6577.367,2507.852
		L6577.367,2507.852z M6508.71,2441.486c9.565-9.888,9.304-25.657-0.584-35.223s-25.657-9.304-35.223,0.583
		s-9.305,25.658,0.583,35.223c0.003,0.002,0.005,0.004,0.007,0.006c9.884,9.562,25.646,9.302,35.209-0.582
		C6508.705,2441.491,6508.708,2441.488,6508.71,2441.486L6508.71,2441.486z M6440.052,2375.12
		c9.565-9.888,9.304-25.657-0.584-35.223s-25.657-9.304-35.223,0.583s-9.305,25.658,0.584,35.223
		c0.002,0.002,0.004,0.004,0.007,0.007c9.884,9.562,25.647,9.3,35.209-0.583C6440.047,2375.125,6440.05,2375.122,6440.052,2375.12
		L6440.052,2375.12z M6564.816,2589.535c9.557-9.898,9.28-25.667-0.616-35.224s-25.667-9.281-35.224,0.616
		c-9.554,9.894-9.281,25.657,0.607,35.215c9.884,9.561,25.647,9.301,35.209-0.584
		C6564.801,2589.55,6564.809,2589.542,6564.816,2589.535z M6496.158,2523.168c9.558-9.896,9.282-25.667-0.614-35.224
		c-9.896-9.558-25.667-9.282-35.225,0.614c-9.554,9.894-9.282,25.658,0.607,35.216c9.884,9.562,25.647,9.3,35.209-0.583
		C6496.144,2523.184,6496.151,2523.176,6496.158,2523.168z M6427.501,2456.802c9.557-9.896,9.28-25.666-0.616-35.222
		c-9.896-9.557-25.666-9.28-35.223,0.616c-9.552,9.893-9.28,25.655,0.607,35.213c9.884,9.562,25.647,9.3,35.209-0.583
		C6427.485,2456.818,6427.493,2456.811,6427.501,2456.802z M6483.597,2604.861c9.562-9.893,9.294-25.662-0.598-35.223
		c-9.892-9.562-25.661-9.294-35.223,0.598c-9.562,9.891-9.294,25.66,0.598,35.223
		C6458.267,2615.017,6474.034,2614.75,6483.597,2604.861z"/>
	<circle id="Ellipse_57" fill="#F9E473" cx="6465.768" cy="2587.447" r="24.91"/>
	<circle id="Ellipse_58" fill="#F9E473" cx="6397.079" cy="2521.115" r="24.91"/>
	<g id="BRIDGE" transform="translate(6524.269 2550.219)">
		<g id="Ellipse_34" transform="translate(0)">
			<ellipse fill="#DF871E" cx="22.498" cy="21.987" rx="22.498" ry="21.987"/>
			<ellipse fill="none" stroke="#FFFFFF" stroke-width="3" cx="22.498" cy="21.987" rx="23.998" ry="23.487"/>
		</g>
		<g id="_552233" transform="translate(-87.118 -130.398)">
			<g id="Group_163" transform="translate(96.345 141.804)">
				<path id="Path_198" fill="#EFC38F" d="M0-0.004h8.294c1.228-0.026,2.456,0.043,3.673,0.205c0.775,0.124,1.515,0.416,2.166,0.855
					c0.653,0.452,1.197,1.045,1.592,1.734c0.429,0.736,0.648,1.575,0.638,2.427c0.002,1.944-1.141,3.708-2.916,4.5
					c1.15,0.293,2.174,0.953,2.916,1.881c0.683,0.898,1.041,2.002,1.019,3.129c-0.003,0.957-0.229,1.898-0.658,2.754
					c-0.407,0.854-1.027,1.59-1.8,2.137c-0.838,0.561-1.805,0.9-2.81,0.982c-0.699,0.076-2.384,0.123-5.054,0.143H0V-0.004z
					 M4.19,3.45v4.799h2.745c1.633,0,2.647-0.023,3.043-0.07c0.633-0.047,1.229-0.309,1.691-0.744
					c0.42-0.432,0.643-1.019,0.616-1.62c0.024-0.569-0.165-1.128-0.531-1.564c-0.416-0.432-0.979-0.691-1.578-0.729
					C9.762,3.475,8.567,3.451,6.596,3.451L4.19,3.45z M4.19,11.703v5.547h3.877c0.96,0.031,1.92-0.012,2.873-0.127
					c0.588-0.094,1.125-0.385,1.522-0.828c0.41-0.492,0.62-1.121,0.587-1.762c0.018-0.563-0.141-1.117-0.453-1.584
					c-0.322-0.449-0.781-0.783-1.309-0.949c-1.22-0.262-2.469-0.363-3.715-0.299H4.19V11.703z"/>
				<path id="Path_199" fill="#EFC38F" d="M23.249,20.749h-3.977V5.719h3.693v2.138c0.425-0.778,1.006-1.458,1.706-2
					c0.515-0.324,1.112-0.491,1.72-0.481c0.925,0.006,1.831,0.265,2.618,0.75l-1.23,3.468c-0.547-0.393-1.196-0.619-1.868-0.65
					C25.4,8.927,24.9,9.089,24.496,9.402c-0.469,0.447-0.787,1.027-0.913,1.664c-0.291,1.662-0.402,3.352-0.333,5.037v4.643
					L23.249,20.749z"/>
			</g>
		</g>
	</g>
	<g id="DREAM" transform="translate(6454.281 2482.208)">
		<g id="Ellipse_36" transform="translate(0)">
			<ellipse fill="#8DC652" cx="23.01" cy="22.498" rx="23.01" ry="22.498"/>
			<ellipse fill="none" stroke="#FFFFFF" stroke-width="3" cx="23.01" cy="22.498" rx="24.51" ry="23.998"/>
		</g>
		<path id="Path_61" opacity="0.5" fill="#FFFFFF" enable-background="new    " d="M8.638,15.666h5.728
			c0.994-0.032,1.987,0.069,2.954,0.3c0.894,0.259,1.702,0.752,2.34,1.429c0.671,0.721,1.177,1.579,1.482,2.515
			c0.367,1.187,0.539,2.426,0.508,3.669c0.023,1.119-0.138,2.233-0.477,3.3c-0.329,1.033-0.899,1.973-1.662,2.742
			c-0.628,0.578-1.381,1.002-2.2,1.239c-0.903,0.246-1.838,0.356-2.774,0.328H8.637L8.638,15.666z M11.772,18.292v10.281h2.34
			c0.637,0.021,1.274-0.028,1.9-0.148c0.469-0.106,0.903-0.329,1.265-0.646c0.401-0.419,0.685-0.937,0.821-1.5
			c0.24-0.928,0.347-1.885,0.317-2.843c0.034-0.932-0.073-1.864-0.317-2.764c-0.167-0.566-0.473-1.082-0.89-1.5
			c-0.406-0.373-0.908-0.626-1.45-0.731c-0.852-0.127-1.713-0.176-2.573-0.148L11.772,18.292z"/>
		<path id="Path_62" opacity="0.5" fill="#FFFFFF" enable-background="new    " d="M25.3,31.189l-3.559-11.245h2.892l2.106,7.37
			l1.938-7.37h2.869l1.874,7.37l2.148-7.37h2.934l-3.611,11.245h-2.859l-1.938-7.232l-1.906,7.232H25.3z"/>
	</g>
	<g id="ILLUSTRATOR" transform="translate(6387.269 2417.219)">
		<g id="Ellipse_34-2" transform="translate(0)">
			<ellipse fill="#DF871E" cx="22.498" cy="21.987" rx="22.498" ry="21.987"/>
			<ellipse fill="none" stroke="#FFFFFF" stroke-width="3" cx="22.498" cy="21.987" rx="23.998" ry="23.487"/>
		</g>
		<g id="Group_65" transform="translate(8.931 11.833)">
			<path id="Path_50" opacity="0.5" fill="#FFFFFF" enable-background="new    " d="M21.623,21.55H16.89l-1.882-4.9H6.394
				l-1.778,4.9h-4.616L8.392,0h4.601L21.623,21.55z M13.611,13.024l-2.969-8l-2.911,8H13.611z"/>
			<path id="Path_51" opacity="0.5" fill="#FFFFFF" enable-background="new    " d="M22.396,3.822V0h4.13v3.822H22.396z
				 M22.396,21.55V5.942h4.13v15.611h-4.13V21.55z"/>
		</g>
	</g>
	<g id="AFTER" transform="translate(6606.093 2534.914)">
		<g id="Ellipse_36-2">
			<ellipse fill="#A87EB7" cx="22.498" cy="21.987" rx="22.498" ry="21.987"/>
			<ellipse fill="none" stroke="#FFFFFF" stroke-width="3" cx="22.498" cy="21.987" rx="23.998" ry="23.487"/>
		</g>
		<g id="Group_67" transform="translate(6.836 12.897)">
			<path id="Path_56" opacity="0.5" fill="#FFFFFF" enable-background="new    " d="M19.114,19.049H14.93l-1.662-4.327H5.652
				L4.08,19.049H0L7.42,0h4.067L19.114,19.049z M12.032,11.512L9.407,4.443l-2.573,7.069H12.032z"/>
			<path id="Path_57" opacity="0.5" fill="#FFFFFF" enable-background="new    " d="M27.789,14.658l3.638,0.611
				c-0.39,1.229-1.167,2.297-2.215,3.047c-1.124,0.73-2.446,1.095-3.786,1.045c-2.057,0.155-4.057-0.727-5.328-2.352
				c-0.951-1.398-1.43-3.065-1.363-4.756c-0.115-1.955,0.527-3.879,1.793-5.373c1.155-1.278,2.813-1.988,4.535-1.943
				c1.844-0.089,3.629,0.658,4.859,2.034c1.187,1.355,1.754,3.433,1.7,6.23h-9.147c-0.032,0.924,0.283,1.825,0.884,2.527
				c0.537,0.589,1.303,0.917,2.1,0.9c0.521,0.017,1.03-0.149,1.442-0.469C27.345,15.763,27.655,15.239,27.789,14.658z
				 M27.997,10.968c0.038-0.878-0.255-1.737-0.819-2.41c-0.999-1.058-2.667-1.105-3.725-0.105c-0.051,0.048-0.1,0.099-0.146,0.15
				c-0.549,0.662-0.822,1.508-0.768,2.365H27.997L27.997,10.968z"/>
		</g>
	</g>
	<g id="XD" transform="translate(6537.621 2468.396)">
		<g id="Ellipse_37" transform="translate(0)">
			<ellipse fill="#DA2286" cx="21.987" cy="22.498" rx="21.986" ry="22.498"/>
			<ellipse fill="none" stroke="#FFFFFF" stroke-width="3" cx="21.987" cy="22.498" rx="23.486" ry="23.998"/>
		</g>
		<g id="Group_68" transform="translate(7.327 13.66)">
			<path id="Path_59" opacity="0.5" fill="#FFFFFF" enable-background="new    " d="M0,18.014l6.156-9.4L0.578,0h4.251l3.612,5.787
				L11.981,0h4.215l-5.6,8.749l6.156,9.265h-4.387l-3.993-6.23l-4.006,6.23H0z"/>
			<path id="Path_60" opacity="0.5" fill="#FFFFFF" enable-background="new    " d="M29.301,18.014h-3.207v-1.917
				c-0.482,0.702-1.13,1.273-1.886,1.665c-0.678,0.353-1.429,0.541-2.193,0.547c-1.49,0.004-2.904-0.661-3.852-1.813
				c-1.142-1.428-1.712-3.23-1.601-5.056c-0.128-1.817,0.428-3.617,1.561-5.044c0.994-1.131,2.438-1.763,3.943-1.726
				c1.472,0.005,2.861,0.673,3.785,1.818V0.001h3.453v18.014L29.301,18.014z M20.085,11.207c-0.075,1.041,0.124,2.083,0.578,3.023
				c0.467,0.849,1.365,1.37,2.334,1.352c0.797-0.001,1.548-0.376,2.026-1.014c0.62-0.883,0.915-1.953,0.837-3.029
				c0.099-1.14-0.187-2.279-0.812-3.238c-0.497-0.639-1.268-1.005-2.077-0.989c-0.8-0.009-1.56,0.351-2.058,0.977
				C20.302,9.133,20.008,10.166,20.085,11.207L20.085,11.207z"/>
		</g>
	</g>
	<g id="PHOTOSHOP" transform="translate(6469.126 2402.924)">
		<g id="Ellipse_33" transform="translate(0)">
			<circle fill="#76C8DA" cx="21.476" cy="21.476" r="21.476"/>
			<circle fill="none" stroke="#FFFFFF" stroke-width="3" cx="21.476" cy="21.476" r="22.976"/>
		</g>
		<g id="Group_64" transform="translate(6.882 11.226)">
			<path id="Path_47" opacity="0.5" fill="#FFFFFF" enable-background="new    " d="M0,19.314V0.005c6.4,0,9.565-0.066,10.894,0.29
				c1.114,0.295,2.095,0.962,2.778,1.89c1.314,2.017,1.493,4.569,0.475,6.75c-0.747,1.433-2.087,2.464-3.662,2.819
				C8.3,12.03,6.098,12.122,3.898,12.031v7.284L0,19.314z M3.9,3.271V8.75c3.951,0,5.491,0.128,6.434-1.251
				c0.654-1.003,0.582-2.314-0.178-3.24C9.167,3.166,8.087,3.271,3.9,3.271L3.9,3.271z"/>
			<path id="Path_48" opacity="0.5" fill="#FFFFFF" enable-background="new    " d="M15.313,15.323l3.714-0.567
				c0.24,1.419,1.563,2.393,2.989,2.2c1.207,0,2.647-0.3,2.647-1.515c0-0.815-0.681-0.994-1.5-1.185
				c-1.972-0.313-3.886-0.92-5.677-1.8c-1.069-0.684-1.699-1.879-1.659-3.148c-0.013-1.185,0.516-2.31,1.437-3.056
				c1.29-0.928,2.867-1.367,4.451-1.238c3.057,0,5.336,0.734,6.19,3.7l-3.49,0.645c-0.123-0.506-0.425-0.95-0.85-1.251
				c-1.227-0.577-2.646-0.587-3.879-0.026c-0.402,0.228-0.543,0.738-0.315,1.14c0.064,0.113,0.154,0.21,0.262,0.283
				c1.072,0.79,5.651,1.078,7.587,2.687c0.788,0.692,1.215,1.707,1.159,2.753c-0.003,1.29-0.595,2.507-1.606,3.306
				c-1.368,1.016-3.056,1.506-4.755,1.383c-1.592,0.084-3.17-0.32-4.524-1.159C16.402,17.73,15.625,16.607,15.313,15.323z"/>
		</g>
	</g>
	<g id="ANIMATE" transform="translate(6399.586 2335.429)">
		<g id="Ellipse_35" transform="translate(0)">
			<ellipse fill="#E25F3F" cx="23.01" cy="21.987" rx="23.011" ry="21.987"/>
			<ellipse fill="none" stroke="#FFFFFF" stroke-width="3" cx="23.01" cy="21.987" rx="24.511" ry="23.487"/>
		</g>
		<g id="Group_66" transform="translate(8.462 12.382)">
			<path id="Path_53" opacity="0.5" fill="#FFFFFF" enable-background="new    " d="M17.596,17.537h-3.851l-1.531-3.983h-7.01
				l-1.447,3.983H0L6.833,0h3.744L17.596,17.537z M11.077,10.599L8.661,4.092l-2.369,6.507H11.077z"/>
			<path id="Path_54" opacity="0.5" fill="#FFFFFF" enable-background="new    " d="M29.782,17.537H26.42v-6.483
				c0.048-0.894-0.024-1.789-0.215-2.662c-0.127-0.38-0.372-0.709-0.7-0.939c-0.345-0.229-0.752-0.347-1.166-0.335
				c-0.56-0.006-1.106,0.161-1.566,0.479c-0.451,0.303-0.786,0.75-0.951,1.268c-0.216,0.957-0.303,1.939-0.257,2.919v5.754h-3.361
				v-12.7h3.122v1.866c1.416-1.956,3.991-2.682,6.22-1.753c0.545,0.216,1.025,0.568,1.395,1.023c0.316,0.418,0.541,0.9,0.658,1.412
				c0.143,0.745,0.205,1.503,0.185,2.261v7.9V17.537z"/>
		</g>
	</g>
</g>
</svg>
