<svg xmlns="http://www.w3.org/2000/svg" width="48.951" height="48.951" viewBox="0 0 48.951 48.951">
  <g id="PHOTOSHOP" transform="translate(3 3)">
    <g id="Ellipse_33" data-name="Ellipse 33" transform="translate(0)" fill="#76c8da" stroke="#fff" stroke-width="3">
      <circle cx="21.476" cy="21.476" r="21.476" stroke="none"/>
      <circle cx="21.476" cy="21.476" r="22.976" fill="none"/>
    </g>
    <g id="Group_64" data-name="Group 64" transform="translate(6.882 11.226)">
      <path id="Path_47" data-name="Path 47" d="M93.783,162.619V143.31c6.4,0,9.565-.066,10.893.29a5.064,5.064,0,0,1,2.779,1.89,6.965,6.965,0,0,1,.474,6.75,5.492,5.492,0,0,1-3.662,2.819,39.543,39.543,0,0,1-6.586.277v7.284Zm3.9-16.043v5.479c3.951,0,5.491.128,6.434-1.251a2.743,2.743,0,0,0-.178-3.24C102.95,146.471,101.87,146.576,97.682,146.576Z" transform="translate(-93.783 -143.305)" fill="#fff" opacity="0.5"/>
      <path id="Path_48" data-name="Path 48" d="M268.844,210.892l3.714-.567a2.67,2.67,0,0,0,2.99,2.2c1.207,0,2.647-.3,2.647-1.515,0-.815-.681-.994-1.5-1.185a19.959,19.959,0,0,1-5.677-1.8,3.6,3.6,0,0,1-1.659-3.148,3.88,3.88,0,0,1,1.436-3.056,6.7,6.7,0,0,1,4.452-1.238c3.056,0,5.336.734,6.19,3.7l-3.49.645a2.159,2.159,0,0,0-.85-1.251,4.618,4.618,0,0,0-3.879-.026.836.836,0,0,0-.053,1.422c1.072.79,5.651,1.078,7.587,2.687a3.422,3.422,0,0,1,1.159,2.753,4.225,4.225,0,0,1-1.607,3.306,7.113,7.113,0,0,1-4.755,1.383,7.8,7.8,0,0,1-4.524-1.159A5.339,5.339,0,0,1,268.844,210.892Z" transform="translate(-253.531 -195.569)" fill="#fff" opacity="0.5"/>
    </g>
  </g>
</svg>
