<svg id="_1931139" data-name="1931139" xmlns="http://www.w3.org/2000/svg" width="104.141" height="104.141" viewBox="0 0 104.141 104.141">
  <path id="Path_13" data-name="Path 13" d="M84.614,104.141H19.526A19.525,19.525,0,0,1,0,84.614V19.526A19.525,19.525,0,0,1,19.526,0H84.614a19.525,19.525,0,0,1,19.526,19.526V84.614A19.525,19.525,0,0,1,84.614,104.141Z" fill="#e3f8fa"/>
  <g id="Group_53" data-name="Group 53" transform="translate(26.035 26.035)">
    <path id="Path_14" data-name="Path 14" d="M30.242,15.941a5.4,5.4,0,1,0-2.3,2.3l2.3,2.3a1.627,1.627,0,1,0,2.3-2.3Zm-4.817-.348A2.169,2.169,0,1,1,27.6,13.425,2.176,2.176,0,0,1,25.425,15.592Z" transform="translate(19.053 -8)" fill="#26c6da"/>
    <path id="Path_15" data-name="Path 15" d="M11.8,21.018H38.917a3.8,3.8,0,0,0,3.8-3.8V11.8a3.8,3.8,0,0,0-3.8-3.8H11.8A3.8,3.8,0,0,0,8,11.8v5.425A3.8,3.8,0,0,0,11.8,21.018Z" transform="translate(-8 -8)" fill="#26c6da"/>
    <path id="Path_16" data-name="Path 16" d="M11.8,27.018H23.732a3.8,3.8,0,0,0,3.795-3.8V17.795A3.8,3.8,0,0,0,23.729,14H11.8A3.8,3.8,0,0,0,8,17.8v5.425A3.8,3.8,0,0,0,11.8,27.018Z" transform="translate(-8 5.526)" fill="#26c6da"/>
    <path id="Path_17" data-name="Path 17" d="M11.8,33.018H23.732a3.8,3.8,0,0,0,3.795-3.8V23.795A3.8,3.8,0,0,0,23.729,20H11.8A3.8,3.8,0,0,0,8,23.8v5.425A3.8,3.8,0,0,0,11.8,33.018Z" transform="translate(-8 19.053)" fill="#26c6da"/>
  </g>
  <g id="Group_54" data-name="Group 54" transform="translate(49.9 46.645)">
    <path id="Path_18" data-name="Path 18" d="M41.912,14.333H16.96a1.627,1.627,0,1,0,0,3.254H41.912a1.627,1.627,0,1,0,0-3.254Z" transform="translate(-15.333 -14.333)" fill="#8ce1eb"/>
    <path id="Path_19" data-name="Path 19" d="M41.912,16.333H16.96a1.627,1.627,0,1,0,0,3.254H41.912a1.627,1.627,0,0,0,0-3.254Z" transform="translate(-15.333 -9.824)" fill="#8ce1eb"/>
    <path id="Path_20" data-name="Path 20" d="M41.912,20.333H16.96a1.627,1.627,0,1,0,0,3.254H41.912a1.627,1.627,0,1,0,0-3.254Z" transform="translate(-15.333 -0.807)" fill="#8ce1eb"/>
    <path id="Path_21" data-name="Path 21" d="M41.912,22.333H16.96a1.627,1.627,0,1,0,0,3.254H41.912a1.627,1.627,0,1,0,0-3.254Z" transform="translate(-15.333 3.702)" fill="#8ce1eb"/>
  </g>
</svg>
