<svg id="_1828107" data-name="1828107" xmlns="http://www.w3.org/2000/svg" width="104.141" height="104.141" viewBox="0 0 104.141 104.141">
  <path id="Path_26" data-name="Path 26" d="M84.614,104.141H19.526A19.525,19.525,0,0,1,0,84.614V19.526A19.525,19.525,0,0,1,19.526,0H84.614a19.525,19.525,0,0,1,19.526,19.526V84.614A19.525,19.525,0,0,1,84.614,104.141Zm0,0" fill="#ffe6e2"/>
  <path id="Path_27" data-name="Path 27" d="M165.425,128h-31.46A5.971,5.971,0,0,0,128,133.965v7.592a5.972,5.972,0,0,0,5.965,5.969h31.46a5.971,5.971,0,0,0,5.965-5.965v-7.593A5.972,5.972,0,0,0,165.425,128Zm0,0" transform="translate(-101.965 -101.965)" fill="#fc573b"/>
  <path id="Path_28" data-name="Path 28" d="M246.862,165.328h-3.254v4.338h3.254a1.083,1.083,0,0,1,1.084,1.084v9.763a1.085,1.085,0,0,1-1.084,1.084h-21.7a6.515,6.515,0,0,0-6.509,6.509v2.174H223v-2.171a2.175,2.175,0,0,1,2.171-2.171h21.7a5.425,5.425,0,0,0,5.422-5.422v-9.763a5.43,5.43,0,0,0-5.425-5.425Zm0,0" transform="translate(-174.181 -131.7)" fill="#fd907e"/>
  <path id="Path_29" data-name="Path 29" d="M203.39,288H195.8a3.8,3.8,0,0,0-3.8,3.8v11.934a3.8,3.8,0,0,0,3.8,3.795h7.593a3.8,3.8,0,0,0,3.8-3.8V291.795A3.8,3.8,0,0,0,203.39,288Zm0,0" transform="translate(-152.947 -229.421)" fill="#fc573b"/>
</svg>
