<svg id="_2572632" data-name="2572632" xmlns="http://www.w3.org/2000/svg" width="104.141" height="104.141" viewBox="0 0 104.141 104.141">
  <path id="Path_33" data-name="Path 33" d="M84.614,104.141H19.526A19.525,19.525,0,0,1,0,84.614V19.526A19.525,19.525,0,0,1,19.526,0H84.614a19.525,19.525,0,0,1,19.526,19.526V84.614A19.525,19.525,0,0,1,84.614,104.141Z" fill="#e3fae5"/>
  <g id="Group_55" data-name="Group 55" transform="translate(40.14 45.563)">
    <path id="Path_34" data-name="Path 34" d="M19.293,25.845a1.625,1.625,0,0,1-1.233-2.685l2.346-2.737-2.346-2.737a1.627,1.627,0,0,1,2.47-2.119l3.254,3.8a1.632,1.632,0,0,1,0,2.119l-3.254,3.8A1.634,1.634,0,0,1,19.293,25.845Z" transform="translate(-0.313 -11.746)" fill="#8feb8c"/>
    <path id="Path_35" data-name="Path 35" d="M17.216,25.849a1.627,1.627,0,0,1-1.237-.566l-3.254-3.8a1.632,1.632,0,0,1,0-2.119l3.254-3.8a1.627,1.627,0,1,1,2.47,2.119L16.1,20.424l2.346,2.737a1.625,1.625,0,0,1-.176,2.294A1.607,1.607,0,0,1,17.216,25.849Z" transform="translate(-12.334 -11.749)" fill="#8feb8c"/>
    <path id="Path_36" data-name="Path 36" d="M16.262,31.316a1.629,1.629,0,0,1-1.22-1.953l3.254-14.1a1.628,1.628,0,0,1,3.173.732L18.215,30.1a1.633,1.633,0,0,1-1.953,1.22Z" transform="translate(-6.323 -14)" fill="#8feb8c"/>
  </g>
  <path id="Path_37" data-name="Path 37" d="M56.272,11.333H11.8a3.817,3.817,0,0,0-3.8,3.8V42.25a3.817,3.817,0,0,0,3.8,3.8H29.7v4.338H25.359a2.171,2.171,0,1,0,0,4.341H42.715a2.171,2.171,0,0,0,0-4.341H38.377V46.048h17.9a3.816,3.816,0,0,0,3.795-3.8V15.131A3.817,3.817,0,0,0,56.272,11.333Zm-.54,30.377H12.338V15.674H55.729V41.71Z" transform="translate(18.035 25.549)" fill="#26da26"/>
</svg>
