<svg id="_2313117" data-name="2313117" xmlns="http://www.w3.org/2000/svg" width="104.141" height="104.141" viewBox="0 0 104.141 104.141">
  <g id="BG">
    <path id="Path_22" data-name="Path 22" d="M84.614,104.141H19.526A19.525,19.525,0,0,1,0,84.614V19.526A19.525,19.525,0,0,1,19.526,0H84.614a19.525,19.525,0,0,1,19.526,19.526V84.614A19.525,19.525,0,0,1,84.614,104.141Z" fill="#f5e6fe"/>
  </g>
  <g id="bold" transform="translate(26.035 26.035)">
    <path id="Path_23" data-name="Path 23" d="M19.545,19.667a2.711,2.711,0,1,0,2.711,2.711A2.713,2.713,0,0,0,19.545,19.667Z" transform="translate(11.915 18.302)" fill="#be63f9"/>
    <path id="Path_24" data-name="Path 24" d="M46.965,8H17.132a5.971,5.971,0,0,0-5.965,5.965v2.711h4.338V15.049a2.713,2.713,0,0,1,2.711-2.711H45.878a2.713,2.713,0,0,1,2.711,2.711V53.018a2.713,2.713,0,0,1-2.711,2.711H29.05a8.808,8.808,0,0,1-1.233,4.338H46.965A5.966,5.966,0,0,0,52.931,54.1V13.965A5.971,5.971,0,0,0,46.965,8Z" transform="translate(-0.86 -8)" fill="#be63f9"/>
    <path id="Path_25" data-name="Path 25" d="M27.491,12H12.374A4.431,4.431,0,0,0,8,16.475v30.1a4.427,4.427,0,0,0,4.374,4.475H27.487a4.424,4.424,0,0,0,4.374-4.475v-30.1A4.426,4.426,0,0,0,27.491,12Zm1.194,32.544h-17.5V17.288a2.013,2.013,0,0,1,1.988-2.034H26.7a2.013,2.013,0,0,1,1.988,2.034Z" transform="translate(-8 1.018)" fill="#d9a4fc"/>
  </g>
</svg>
