<svg id="_1828124" data-name="1828124" xmlns="http://www.w3.org/2000/svg" width="104.141" height="104.141" viewBox="0 0 104.141 104.141">
  <path id="Path_30" data-name="Path 30" d="M84.614,104.141H19.526A19.525,19.525,0,0,1,0,84.614V19.526A19.525,19.525,0,0,1,19.526,0H84.614a19.525,19.525,0,0,1,19.526,19.526V84.614A19.525,19.525,0,0,1,84.614,104.141Zm0,0" fill="#fff9dd"/>
  <path id="Path_31" data-name="Path 31" d="M242.09,213.328H219.309a5.971,5.971,0,0,0-5.965,5.965v22.781a5.971,5.971,0,0,0,5.965,5.965H242.09a5.966,5.966,0,0,0,5.965-5.962V219.3a5.974,5.974,0,0,0-5.965-5.969Zm0,0" transform="translate(-169.95 -169.937)" fill="#ffd200"/>
  <path id="Path_32" data-name="Path 32" d="M142.1,151.324a9.231,9.231,0,0,1,9.22-9.22h14.944A19.515,19.515,0,1,0,142.1,166.265Zm0,0" transform="translate(-101.965 -101.965)" fill="#ffe777"/>
</svg>
