<svg id="_1827193" data-name="1827193" xmlns="http://www.w3.org/2000/svg" width="104.141" height="104.141" viewBox="0 0 104.141 104.141">
  <path id="Path_38" data-name="Path 38" d="M84.614,104.141H19.526A19.525,19.525,0,0,1,0,84.614V19.526A19.525,19.525,0,0,1,19.526,0H84.614a19.525,19.525,0,0,1,19.526,19.526V84.614A19.525,19.525,0,0,1,84.614,104.141Zm0,0" fill="#ffe6e2"/>
  <path id="Path_39" data-name="Path 39" d="M84.614,104.141H19.526A19.525,19.525,0,0,1,0,84.614V19.526A19.525,19.525,0,0,1,19.526,0H84.614a19.525,19.525,0,0,1,19.526,19.526V84.614A19.525,19.525,0,0,1,84.614,104.141Zm0,0" fill="#e6e9fe"/>
  <path id="Path_40" data-name="Path 40" d="M203.164,222.6l-5.965-5.965a2.168,2.168,0,0,0-3.7,1.533v3.8H170.171a2.171,2.171,0,0,0,0,4.341h23.324v3.8a2.167,2.167,0,0,0,1.338,2,2.224,2.224,0,0,0,.829.16,2.165,2.165,0,0,0,1.533-.635l5.965-5.965a2.169,2.169,0,0,0,0-3.068Zm0,0" transform="translate(-133.829 -172.059)" fill="#6368f9"/>
  <g id="Group_56" data-name="Group 56" transform="translate(26.035 26.035)">
    <path id="Path_41" data-name="Path 41" d="M177.9,311H130.171a2.171,2.171,0,1,1,0-4.341H177.9a2.171,2.171,0,1,1,0,4.341Zm0,0" transform="translate(-128 -270.318)" fill="#a7a4fc"/>
    <path id="Path_42" data-name="Path 42" d="M177.9,188.338H130.171a2.169,2.169,0,1,1,0-4.338H177.9a2.169,2.169,0,1,1,0,4.338Zm0,0" transform="translate(-128 -172.609)" fill="#a7a4fc"/>
    <path id="Path_43" data-name="Path 43" d="M247.5,143.728a2.173,2.173,0,0,1-2.171-2.171v-11.39a2.171,2.171,0,0,1,4.341,0v11.39A2.168,2.168,0,0,1,247.5,143.728Zm0,0" transform="translate(-221.464 -128)" fill="#a7a4fc"/>
    <path id="Path_44" data-name="Path 44" d="M247.5,322.388a2.173,2.173,0,0,1-2.171-2.171v-11.39a2.171,2.171,0,0,1,4.341,0v11.39A2.168,2.168,0,0,1,247.5,322.388Zm0,0" transform="translate(-221.464 -270.318)" fill="#a7a4fc"/>
  </g>
  <path id="Path_45" data-name="Path 45" d="M173.562,180.07H134.509A6.515,6.515,0,0,1,128,173.562V134.509A6.515,6.515,0,0,1,134.509,128h39.053a6.515,6.515,0,0,1,6.509,6.509v39.053A6.515,6.515,0,0,1,173.562,180.07Zm-39.053-47.732a2.173,2.173,0,0,0-2.171,2.171v39.053a2.173,2.173,0,0,0,2.171,2.171h39.053a2.173,2.173,0,0,0,2.171-2.171V134.509a2.173,2.173,0,0,0-2.171-2.171Zm0,0" transform="translate(-101.965 -101.965)" fill="#6368f9"/>
</svg>
