<svg xmlns="http://www.w3.org/2000/svg" width="316.935" height="408.107" viewBox="0 0 316.935 408.107">
  <g id="study" transform="translate(-997.563 -60.713)">
    <path id="Path_75" data-name="Path 75" d="M1068.591,127.434c-10.082,15.809-15.289,32.826-9.9,57.095,5.342,7.421,24.76,26.51,31.46,25.344s20.391-18.643,20.391-18.643C1103.254,185.112,1085.484,145.2,1068.591,127.434Z" transform="translate(58.407 66.089)" fill="#995882"/>
    <path id="Path_76" data-name="Path 76" d="M1071.823,160.754a108.149,108.149,0,0,1-9.2-27.852c-5.9,12.923-8.121,27.38-3.943,46.21,5.342,7.421,24.76,26.51,31.46,25.344,2.928-.51,7.192-4.134,11.065-8.056C1091.832,192.061,1080.356,178.613,1071.823,160.754Z" transform="translate(58.41 71.506)" fill="#773d65"/>
    <g id="Group_140" data-name="Group 140" transform="translate(1015.399 126.934)">
      <path id="Path_77" data-name="Path 77" d="M1011.159,121.356a19.659,19.659,0,1,0,15.674-22.963A19.658,19.658,0,0,0,1011.159,121.356Zm28.533-5.382a9.378,9.378,0,1,1-10.954-7.476A9.377,9.377,0,0,1,1039.692,115.974Z" transform="translate(-1002.272 -89.951)" fill="#e8dfc1"/>
      <g id="Group_136" data-name="Group 136" transform="translate(0 18.16)">
        <path id="Path_78" data-name="Path 78" d="M1027.424,103.1,1030,116.763l11.48-4.879-1.588-8.42Z" transform="translate(-985.82 -103.104)" fill="#e8dfc1"/>
        <path id="Path_79" data-name="Path 79" d="M1020.58,119.618,1018,105.959l-11.48,4.879,1.589,8.42Z" transform="translate(-1006.523 -100.276)" fill="#e8dfc1"/>
      </g>
      <g id="Group_137" data-name="Group 137" transform="translate(18.16)">
        <path id="Path_80" data-name="Path 80" d="M1032.16,114.882l-13.659,2.577,4.878,11.48,8.42-1.588Z" transform="translate(-1012.818 -73.278)" fill="#e8dfc1"/>
        <path id="Path_81" data-name="Path 81" d="M1015.646,108.038l13.659-2.577-4.879-11.481-8.42,1.588Z" transform="translate(-1015.646 -93.981)" fill="#e8dfc1"/>
      </g>
      <g id="Group_138" data-name="Group 138" transform="translate(8.782 2.691)">
        <path id="Path_82" data-name="Path 82" d="M1027.083,120.19l-11.48-7.836-4.668,11.568,7.077,4.83Z" transform="translate(-1010.935 -78.473)" fill="#e8dfc1"/>
        <path id="Path_83" data-name="Path 83" d="M1021.962,103.895l11.48,7.836,4.668-11.567-7.077-4.831Z" transform="translate(-1000.012 -95.333)" fill="#e8dfc1"/>
      </g>
      <g id="Group_139" data-name="Group 139" transform="translate(2.691 8.781)">
        <path id="Path_84" data-name="Path 84" d="M1016.437,114.541l7.836-11.48-11.568-4.668-4.83,7.077Z" transform="translate(-1007.875 -98.392)" fill="#e8dfc1"/>
        <path id="Path_85" data-name="Path 85" d="M1032.732,109.42,1024.9,120.9l11.568,4.668,4.831-7.077Z" transform="translate(-991.015 -87.469)" fill="#e8dfc1"/>
      </g>
    </g>
    <g id="Group_145" data-name="Group 145" transform="translate(1009.577 186.482)">
      <path id="Path_86" data-name="Path 86" d="M1007.356,133.748a12.647,12.647,0,1,0,16.794-6.153A12.647,12.647,0,0,0,1007.356,133.748Zm16.947,7.859a6.033,6.033,0,1,1-2.936-8.01A6.033,6.033,0,0,1,1024.3,141.607Z" transform="translate(-1001.04 -121.398)" fill="#e8dfc1"/>
      <g id="Group_141" data-name="Group 141" transform="translate(0.351 7.621)">
        <path id="Path_87" data-name="Path 87" d="M1019.734,132.768l-3.762,8.112,7.833,1.742,2.319-5Z" transform="translate(-991.691 -122.73)" fill="#e8dfc1"/>
        <path id="Path_88" data-name="Path 88" d="M1010.165,137.58l3.761-8.112-7.833-1.742-2.318,5Z" transform="translate(-1003.774 -127.725)" fill="#e8dfc1"/>
      </g>
      <g id="Group_142" data-name="Group 142" transform="translate(7.621 0.351)">
        <path id="Path_89" data-name="Path 89" d="M1017.281,140.033l-8.112-3.762-1.742,7.833,5,2.319Z" transform="translate(-1007.427 -111.99)" fill="#e8dfc1"/>
        <path id="Path_90" data-name="Path 90" d="M1012.47,130.463l8.112,3.762,1.742-7.833-5-2.319Z" transform="translate(-1002.431 -124.073)" fill="#e8dfc1"/>
      </g>
      <g id="Group_143" data-name="Group 143" transform="translate(0 8.891)">
        <path id="Path_91" data-name="Path 91" d="M1013.445,140.713l-3.076-8.4-6.771,4.307,1.9,5.176Z" transform="translate(-1003.598 -124.446)" fill="#e8dfc1"/>
        <path id="Path_92" data-name="Path 92" d="M1016.3,129.45l3.076,8.4,6.771-4.307-1.9-5.175Z" transform="translate(-991.014 -128.363)" fill="#e8dfc1"/>
      </g>
      <g id="Group_144" data-name="Group 144" transform="translate(8.891)">
        <path id="Path_93" data-name="Path 93" d="M1009.151,133.744l8.4-3.076-4.307-6.771-5.176,1.9Z" transform="translate(-1008.065 -123.897)" fill="#e8dfc1"/>
        <path id="Path_94" data-name="Path 94" d="M1020.415,136.6l-8.4,3.076,4.307,6.771,5.176-1.9Z" transform="translate(-1004.148 -111.313)" fill="#e8dfc1"/>
      </g>
    </g>
    <g id="Group_146" data-name="Group 146" transform="translate(997.563 333.952)">
      <path id="Path_95" data-name="Path 95" d="M999.557,200.018h120.051c21.245,0,27.352,82.177,6.107,82.177H1005.664C1016.508,271.132,1015.009,213.056,999.557,200.018Z" transform="translate(-995.587 -195.965)" fill="#e0c1a9"/>
      <path id="Path_96" data-name="Path 96" d="M1069.593,274.748c-25.173-24.243-3.7-71.407-3.7-71.407s13.08,19.615,12.094,38.129A93.535,93.535,0,0,1,1069.593,274.748Z" transform="translate(-938.333 -192.674)" fill="#4f333a"/>
      <path id="Path_97" data-name="Path 97" d="M1079.607,244.98c0-12.407-50.839-25.178-73.9-30.937,2.51,15.5,2.188,33.387-.81,44.71C1004.313,260.952,1079.607,257.893,1079.607,244.98Z" transform="translate(-990.303 -182.073)" fill="#fff0d2"/>
      <path id="Path_98" data-name="Path 98" d="M1056.157,197.982h167.357c10.37,0,14.037,90.283,3.666,90.283H1059.823C1073.233,288.265,1069.567,197.982,1056.157,197.982Z" transform="translate(-939.522 -197.982)" fill="#ffb94a"/>
      <path id="Path_99" data-name="Path 99" d="M1000.236,197.982h133.271l1.2,8.555H1001.439c-1.778,0-3.488-1.915-3.82-4.278h0C997.286,199.9,998.459,197.982,1000.236,197.982Z" transform="translate(-997.562 -197.982)" fill="#ff9136"/>
      <path id="Path_100" data-name="Path 100" d="M1001.669,239.6h132.767l1.286,7.431H1002.957a4.338,4.338,0,0,1-3.864-3.716h0C998.739,241.269,999.891,239.6,1001.669,239.6Z" transform="translate(-996.11 -156.753)" fill="#ff9136"/>
      <path id="Path_101" data-name="Path 101" d="M1223.514,197.982H1056.157c3.75,0,6.738,7.066,8.8,17.242,23.285,8.661,56.3,15.9,93.286,19.583,27.416,2.735,53.082,3.127,74.524,1.565C1231.488,216.263,1228.179,197.982,1223.514,197.982Z" transform="translate(-939.522 -197.982)" fill="#ffcb64"/>
      <path id="Path_102" data-name="Path 102" d="M1059.823,288.265h18.6c6.2-19.629,4.13-70.654-3.667-90.283h-18.6C1069.567,197.982,1073.233,288.265,1059.823,288.265Z" transform="translate(-939.522 -197.982)" fill="#ff9136"/>
      <path id="Path_103" data-name="Path 103" d="M1075.187,272.748h14.33c4.779-15.124,3.181-54.437-2.826-69.561h-14.328C1082.694,203.187,1085.52,272.748,1075.187,272.748Z" transform="translate(-923.47 -192.826)" fill="#ffe7bd"/>
      <path id="Path_104" data-name="Path 104" d="M1132.385,272.748h14.33c4.779-15.124,3.183-54.437-2.824-69.561h-14.33C1139.894,203.187,1142.718,272.748,1132.385,272.748Z" transform="translate(-866.813 -192.826)" fill="#ffe7bd"/>
    </g>
    <path id="Path_105" data-name="Path 105" d="M1226.231,240.392l-163.873-.322-1.175,5.815,163.873.322Z" transform="translate(63.02 177.659)" fill="#ff9136"/>
    <g id="Group_147" data-name="Group 147" transform="translate(1001.555 423.652)">
      <path id="Path_106" data-name="Path 106" d="M1068.331,243.045h174.729c10.828,0,6.017,45.169-4.811,45.169H1063.52C1077.521,288.214,1082.332,243.045,1068.331,243.045Z" transform="translate(-936.222 -243.045)" fill="#d64c60"/>
      <path id="Path_107" data-name="Path 107" d="M1063.52,288.214h22.153c9-8.382,11.923-36.787,4.648-45.169h-21.989C1082.332,243.045,1077.521,288.214,1063.52,288.214Z" transform="translate(-936.222 -243.045)" fill="#b5314b"/>
      <path id="Path_108" data-name="Path 108" d="M1008.172,245.566l118.644.543c21,.1,17.356,34.621-3.641,34.524l-118.644-.543C1016.552,275.5,1021.908,251.11,1008.172,245.566Z" transform="translate(-994.653 -240.548)" fill="#eaddbe"/>
      <path id="Path_109" data-name="Path 109" d="M1070.04,276.514c-4.035-12.009.9-29.778.9-29.778s9.873,6.415,7.07,18.343C1076.384,272,1070.04,276.514,1070.04,276.514Z" transform="translate(-931.334 -239.389)" fill="#4f333a"/>
      <path id="Path_110" data-name="Path 110" d="M1094.747,253.927H1012.8a26.174,26.174,0,0,1-4.871,12.833h83.338C1112.26,266.76,1115.743,253.927,1094.747,253.927Z" transform="translate(-991.29 -232.266)" fill="#fff0d2"/>
      <path id="Path_111" data-name="Path 111" d="M1005.37,243.045h144.5l-.85,7.972h-144.5c-1.857,0-3.171-1.785-2.936-3.987h0C1001.819,244.828,1003.515,243.045,1005.37,243.045Z" transform="translate(-997.596 -243.045)" fill="#b5314b"/>
      <path id="Path_112" data-name="Path 112" d="M1003.381,261.732h144.5l-.848,7.972h-144.5c-1.855,0-3.171-1.785-2.936-3.985h0C999.83,263.517,1001.524,261.732,1003.381,261.732Z" transform="translate(-999.568 -224.535)" fill="#b5314b"/>
      <path id="Path_113" data-name="Path 113" d="M1223.628,243.045h-140.49c4.851,11.145,40.456,22.27,84.236,25.73,24.022,1.9,45.9,1.123,61.791-1.656C1230.665,255.352,1229.281,243.045,1223.628,243.045Z" transform="translate(-916.789 -243.045)" fill="#ed5672"/>
      <path id="Path_114" data-name="Path 114" d="M1203.309,247.8h-107.73c3.427,5.7,1.411,20.552-3.565,26.249H1199.7C1207.818,274.046,1211.424,247.8,1203.309,247.8Z" transform="translate(-907.997 -238.338)" fill="#fff0d2" style="mix-blend-mode: overlay;isolation: isolate"/>
    </g>
    <path id="Path_115" data-name="Path 115" d="M1103.077,133.745c-2.731-4.642-14.848-8.872-25.127-11.533s-33.782,9.463-33.782,9.463c-35.694,53.687-21.458,114.864-.32,135.13,5.118,4.907,11.239,7.885,17.2,4.495l59.887-34.064C1074.589,199.684,1118.3,159.612,1103.077,133.745Z" transform="translate(24.59 60.538)" fill="#995882"/>
    <path id="Path_116" data-name="Path 116" d="M1056.314,140.683c4.606-15.795-10.54-13.87-10.54-13.87-41.977,61.307-22.977,116.972-1.839,137.238a15.8,15.8,0,0,0,18.717,2.387l19.36-11.012C1059.2,232.074,1029.988,202.712,1056.314,140.683Z" transform="translate(22.985 65.401)" fill="#773d65"/>
    <path id="Path_117" data-name="Path 117" d="M1092.035,246.673l15.311-7.5s-12-2.606-15.614-.938S1092.035,246.673,1092.035,246.673Z" transform="translate(91.764 175.292)" fill="#ff9136"/>
    <path id="Path_118" data-name="Path 118" d="M1108.732,242.292l15.311-7.5s-12-2.606-15.616-.938S1108.732,242.292,1108.732,242.292Z" transform="translate(108.302 170.953)" fill="#ff9136"/>
    <path id="Path_119" data-name="Path 119" d="M1065.359,205.355h14.068l36.279,81.69h2.221l-10.118-70.831,41.462,59.231h2.962l-30.356-81.2-57.5,5.183Z" transform="translate(66.177 132.272)" fill="#ff9136"/>
    <path id="Path_120" data-name="Path 120" d="M1151.382,188.686c-4.278-5.414-60.574-10.44-60.574-10.44s-39.206-5.028-42.63,38.67l85.032-.388,66.269,72.7,2.775.772S1155.659,194.1,1151.382,188.686Z" transform="translate(50.137 116.246)" fill="#704c4f"/>
    <path id="Path_121" data-name="Path 121" d="M1169.149,244.584c-15.037-26.866-20.383-46.161-11.941-43.1a10.548,10.548,0,0,1,1.594.758c-3.78-7.335-6.527-12.429-7.421-13.562-4.278-5.414-60.574-10.44-60.574-10.44s-39.206-5.028-42.63,38.668l85.032-.386,66.269,72.7.884.245C1191.087,279.4,1179.223,262.583,1169.149,244.584Z" transform="translate(50.137 116.246)" fill="#603e42"/>
    <path id="Path_122" data-name="Path 122" d="M1135.533,196.2c-3.884-5.438-51.157-18.667-51.157-18.667s-38.445-2.418-48.911,33a6.325,6.325,0,0,0,6.117,8.08l67.181-.352,57.546,78.192,2.719.778S1139.419,201.634,1135.533,196.2Z" transform="translate(37.287 115.675)" fill="#704c4f"/>
    <path id="Path_123" data-name="Path 123" d="M1168.2,294.28c-6.75-9.991-40.629-83.68-63.335-86.766-17.692-2.4-30.571-8.639-28.5-13.573s18.886-7.666,36.4-4.2c7.851,1.557,19.732,4.879,23.444,7.775a8.009,8.009,0,0,0-.67-1.324c-3.884-5.438-51.155-18.667-51.155-18.667s-38.447-2.418-48.913,33a6.325,6.325,0,0,0,6.117,8.08l67.181-.352,57.546,78.192,2.719.778S1168.732,296.169,1168.2,294.28Z" transform="translate(37.287 115.675)" fill="#603e42"/>
    <path id="Path_124" data-name="Path 124" d="M1093.72,155.318l8.884,9.214-19.744,22.21-14.314-5.265s.987-11.517,7.568-18.263S1093.72,155.318,1093.72,155.318Z" transform="translate(70.312 93.709)" fill="#e8dfc1"/>
    <path id="Path_125" data-name="Path 125" d="M1089.73,155.318s-10.538,1.117-17.156,7.476c2.972,3.613,8.394,6.965,15.058,8.882,1.292.372,2.572.667,3.832.9l7.15-8.044Z" transform="translate(74.302 93.709)" fill="#f7eed5"/>
    <path id="Path_126" data-name="Path 126" d="M1079.178,183.993c17.173,7.683,46.553,12.166,46.553,12.166l8.609-12.089s-33.367-22.961-43.919-25.668c-6.117-1.569-11.846,5.544-15.582,11.8A9.641,9.641,0,0,0,1079.178,183.993Z" transform="translate(75.174 96.547)" fill="#ffb882"/>
    <path id="Path_127" data-name="Path 127" d="M1088.412,158.383l.123-.173c-6.226.639-11.8,9.278-14.9,15.162a6.648,6.648,0,0,0,2.819,8.989c16.368,8.661,49.861,13.771,49.861,13.771l6.314-8.866c-7.978-1.409-25.475-4.845-38.473-9.875A12.612,12.612,0,0,1,1088.412,158.383Z" transform="translate(74.591 96.574)" fill="#ff9566"/>
    <path id="Path_128" data-name="Path 128" d="M1067.512,182.336l53.6,14.371,62.533-4.272,1.165-5.632-56.124-9.9-61.562.777Z" transform="translate(68.904 115.085)" fill="#e8dfc1"/>
    <path id="Path_129" data-name="Path 129" d="M1067.512,181.949l54.1,15.28,62.027-5.181,1.165-5.632-61.219,5.877-56.467-15Z" transform="translate(68.904 115.472)" fill="#d6c099"/>
    <path id="Path_130" data-name="Path 130" d="M1190.534,147.13c-2.552-.744-64.08-4.913-66.578-4.166s-28.465,86.5-28.465,86.5l59.961-3.223S1193.084,147.876,1190.534,147.13Z" transform="translate(97.003 81.383)" fill="#e8dfc1"/>
    <path id="Path_131" data-name="Path 131" d="M1176.369,147.13c-2.552-.744-64.079-4.913-66.577-4.166,59.724,19.909,31.5,83.28,31.5,83.28S1178.919,147.876,1176.369,147.13Z" transform="translate(111.168 81.383)" fill="#efe7ce"/>
    <path id="Path_132" data-name="Path 132" d="M1120.31,114.43l9.032,32.256,4.516-40.643Z" transform="translate(121.586 44.901)" fill="#b6c647"/>
    <path id="Rectangle_61" data-name="Rectangle 61" d="M8.043,0H112.735a8.042,8.042,0,0,1,8.042,8.042V95.736a8.043,8.043,0,0,1-8.043,8.043H8.042A8.042,8.042,0,0,1,0,95.736V8.043A8.043,8.043,0,0,1,8.043,0Z" transform="translate(1187.313 60.714)" fill="#b6c647"/>
    <g id="Group_149" data-name="Group 149" transform="translate(1202.629 77.598)">
      <path id="Path_133" data-name="Path 133" d="M1134.789,95.146h-15.971l4.365,15.592h7.242Z" transform="translate(-1082.521 -43.491)" fill="#fff"/>
      <path id="Path_134" data-name="Path 134" d="M1125.607,102.185H1121.9l.513,2.888h2.683Z" transform="translate(-1079.469 -36.518)" fill="#fff"/>
      <path id="Path_135" data-name="Path 135" d="M1130.421,78.634c-8.892,0-15.255,8.723-15.255,19.483s6.364,19.481,15.255,19.481,15.256-8.723,15.256-19.481S1139.313,78.634,1130.421,78.634Zm-3.437,36.351c-7.7-1.525-11.571-10.311-9.771-19.629s8.949-15.632,16.649-14.109,11.569,10.313,9.769,19.629S1134.681,116.51,1126.984,114.985Z" transform="translate(-1086.138 -59.847)" fill="#fff"/>
      <g id="Group_148" data-name="Group 148" transform="translate(38.899 37.014)">
        <path id="Path_136" data-name="Path 136" d="M1128.891,107.467l-1.632-.088,1.751-15.3a11.733,11.733,0,0,1-5.908.018l2.285,14.607-1.746.346-3.517-18.9,1.758.727c.052.022,4.735,1.913,7.958-.026l1.764-1.059Z" transform="translate(-1120.125 -87.791)" fill="#fff"/>
      </g>
      <path id="Path_137" data-name="Path 137" d="M1113.033,102.3c2.016-1.614,6.425-6.075,5.523-6.869s-6.423,2.7-8.44,4.31-3.1,3.41-2.192,4.2S1111.019,103.917,1113.033,102.3Z" transform="translate(-1093.63 -43.321)" fill="#fff"/>
      <path id="Path_138" data-name="Path 138" d="M1143.228,97.238c-2.291-1.262-8.486-3.882-9.388-3.083s4.186,4.4,6.475,5.661,4.7,1.8,5.605,1S1145.519,98.5,1143.228,97.238Z" transform="translate(-1067.745 -44.62)" fill="#fff"/>
      <path id="Path_139" data-name="Path 139" d="M1148.276,86.4c-2.17-.261-7.63-.392-7.821.442s5.036,1.989,7.208,2.249,4.045-.04,4.236-.872S1150.446,86.656,1148.276,86.4Z" transform="translate(-1061.093 -52.355)" fill="#fff"/>
      <path id="Path_140" data-name="Path 140" d="M1119.091,72.773c.3,1.917,1.622,6.6,2.574,6.531s.8-4.825.5-6.742-1.129-3.43-2.08-3.364S1118.791,70.856,1119.091,72.773Z" transform="translate(-1082.354 -69.196)" fill="#fff"/>
      <path id="Path_141" data-name="Path 141" d="M1105.523,91.03c2.442-.271,8.269-1.612,7.968-2.709s-6.5-1.1-8.941-.834-4.236,1.166-3.934,2.263S1103.083,91.3,1105.523,91.03Z" transform="translate(-1100.583 -51.225)" fill="#fff"/>
      <path id="Path_142" data-name="Path 142" d="M1138.9,72.237c-1.919,1.348-6.085,5.157-5.187,5.95s6.174-2.044,8.091-3.394,2.918-2.93,2.019-3.722S1140.822,70.888,1138.9,72.237Z" transform="translate(-1067.887 -67.687)" fill="#fff"/>
      <path id="Path_143" data-name="Path 143" d="M1104.868,78.158c2.4,1.847,8.639,5.866,9.423,5.07.874-.888-5.387-6.834-8.227-9.053-2.874-2.247-5.311-3.065-5.43-1.547C1100.527,73.992,1102.447,76.291,1104.868,78.158Z" transform="translate(-1100.537 -66.563)" fill="#fff"/>
    </g>
    <path id="Path_144" data-name="Path 144" d="M1027.808,163.447c5.446,37.217,44.948,60.534,44.948,60.534l26.508-27.091c-31.97-15.18-32.134-62.32-49.9-69.311C1036.735,122.613,1026.06,151.5,1027.808,163.447Z" transform="translate(29.772 65.671)" fill="#995882"/>
    <path id="Path_145" data-name="Path 145" d="M1076.035,188.566l4.107-4.2c-18.59-8.826-26.422-28.453-33.218-44.714C1052.37,156.814,1058.582,177.357,1076.035,188.566Z" transform="translate(48.894 78.194)" fill="#773d65"/>
    <path id="Path_146" data-name="Path 146" d="M1044.3,153.2c-1.5-6.149-.709-17.485,2.359-26.277-11.469.953-22.015,27.191-20.433,38.009,5.446,37.215,48.066,59.133,48.066,59.133l12.7-12.974C1072.74,200.535,1050.989,180.548,1044.3,153.2Z" transform="translate(28.236 65.585)" fill="#773d65"/>
    <path id="Path_147" data-name="Path 147" d="M1039.62,126.143l29.444,22.694,10.273-20.192a100.34,100.34,0,0,0-18.456-6.433C1055.616,120.85,1046.887,123.364,1039.62,126.143Z" transform="translate(41.66 60.539)" fill="#e8dfc1"/>
    <path id="Path_148" data-name="Path 148" d="M1042.539,141.166l10.778-35.83,24.469,16.021-4.952,22.43-8.739,12.526Z" transform="translate(44.55 44.201)" fill="#ffb882"/>
    <path id="Path_149" data-name="Path 149" d="M1077.315,164.61l-9.708-10.2s-16.289,4.937-21.06,19.087-2.96,19.744-2.96,19.744l14.971,3.947Z" transform="translate(45.255 92.808)" fill="#e8dfc1"/>
    <path id="Path_150" data-name="Path 150" d="M1064.041,154.408s-10.589,3.221-17.192,11.887a39.449,39.449,0,0,0,10.46,6.1,40.014,40.014,0,0,0,10.447,2.624l5.994-10.408Z" transform="translate(48.82 92.808)" fill="#f7eed5"/>
    <path id="Path_151" data-name="Path 151" d="M1057.877,194.85c24.33,8.388,58.735.287,58.735.287l1.6-7.65s-34.641-20.218-46.316-27.889c-6.975-4.582-19.463,5.609-23.363,16.289C1046.049,182.7,1051.019,192.485,1057.877,194.85Z" transform="translate(49.847 96.833)" fill="#ffb882"/>
    <path id="Path_152" data-name="Path 152" d="M1126.472,240.487l13.54-10.361s-12.281-.2-15.494,2.15S1126.472,240.487,1126.472,240.487Z" transform="translate(124.712 167.806)" fill="#ffe7bd"/>
    <path id="Path_153" data-name="Path 153" d="M1102.534,243.7l15.311-7.5s-12-2.606-15.616-.938S1102.534,243.7,1102.534,243.7Z" transform="translate(102.161 172.344)" fill="#ffe7bd"/>
    <path id="Path_154" data-name="Path 154" d="M1071.571,182.7c-6.859-2.365-13.349-8.322-10.86-15.138a30.343,30.343,0,0,1,5.372-8.983c-6.686,1.3-14.589,9.107-17.546,17.21-2.488,6.816,2.482,16.6,9.34,18.964,24.33,8.388,55.9,1.027,55.9,1.027S1088.606,188.569,1071.571,182.7Z" transform="translate(49.847 96.935)" fill="#ff9566"/>
    <path id="Path_155" data-name="Path 155" d="M1088.39,142.786l-.3-.133c-.436-.193-.878-.384-1.332-.571l3.414-15.464a48.226,48.226,0,0,0-19.543-18.2,41.551,41.551,0,0,0-4.266-1.768l-9.752,32.418c-.117.036-.235.076-.354.113l-.124.038q-1.391.442-2.761.922l-.062.022a136.654,136.654,0,0,0-15.268,6.541,162.785,162.785,0,0,0-9.467,15.638c12.027-13.12,20.911-7.443,25.847-2.012,18.367,20.2,30.822,16.906,40.374,5.85,2.976-3.446,4.134-9.2,3.579-15.841q-.762-.875-1.519-1.7C1095.554,146.572,1092.4,144.586,1088.39,142.786Z" transform="translate(30.718 45.506)" fill="#c94343" opacity="0.6" style="mix-blend-mode: multiply;isolation: isolate"/>
    <path id="Path_156" data-name="Path 156" d="M1129.7,142.929a30.276,30.276,0,0,0-4.594.034c-2.5.746-30.768,87.53-30.768,87.53l5.168-.352C1105.852,210.8,1123.731,156.741,1129.7,142.929Z" transform="translate(95.857 81.384)" fill="#d6c099"/>
    <path id="Path_157" data-name="Path 157" d="M1096.576,177.8c-.553,5.41-2.928,8.374-4.55,8.629s-6.234-2.864-6.7-4.736S1097.063,173.033,1096.576,177.8Z" transform="translate(86.92 114.331)" fill="#ff9566"/>
    <path id="Path_158" data-name="Path 158" d="M1097.576,175.247c-2.681,9.781-4.1,10.395-6.193,10.854s-7.7-2.092-8.012-3.8,1.676-5.341,3.155-4.654a27.6,27.6,0,0,0,3.343,1.222Z" transform="translate(84.964 113.45)" fill="#ffb882"/>
    <path id="Path_159" data-name="Path 159" d="M1105.462,176.253c-1.706-4.588-21.992-9.005-34.538-3.615l.392.623a21.38,21.38,0,0,0,17.142,9.977,43.971,43.971,0,0,1,10.95,2.325C1105.173,187.394,1107.17,180.842,1105.462,176.253Z" transform="translate(72.668 108.411)" fill="#ffb882"/>
    <path id="Path_160" data-name="Path 160" d="M1095.238,175.729c-2.681,9.784-4.1,10.395-6.193,10.856s-7.7-2.092-8.012-3.8,1.676-5.341,3.155-4.656a27.776,27.776,0,0,0,3.342,1.224Z" transform="translate(82.649 113.927)" fill="#ffb882"/>
    <path id="Path_161" data-name="Path 161" d="M1086.42,171.728c6.511,2.815,10.783,6.473,12.483,9.467s3.075,9.959,2.842,11.424-4.535,2.375-4.937.285-1.72-8.362-2.373-8.758-6.913-4.9-7.253-4.931S1086.42,171.728,1086.42,171.728Z" transform="translate(88.017 109.964)" fill="#ffb882"/>
    <g id="Group_151" data-name="Group 151" transform="translate(1090.287 102.934)">
      <path id="Path_162" data-name="Path 162" d="M1046.607,144.614c-6.819-22.585,2.691-36.387,2.691-36.387s-7.677-8.649,1.772-18.094,24.525-9.26,30.113-4.743c0,0,17.043-7.518,24.364-.408s-.86,13.936-.86,13.936,5.733,6.3,2.532,13.564-15.741,4.761-15.741,4.761Z" transform="translate(-1044.145 -81.924)" fill="#93402c"/>
      <path id="Path_163" data-name="Path 163" d="M1091.719,113.6c-19.993-4.688-34.3-15.944-31.95-25.143a10.3,10.3,0,0,1,4.787-5.986,26.709,26.709,0,0,0-13.486,7.12c-9.449,9.445-1.772,18.094-1.772,18.094s-9.511,13.8-2.691,36.387l44.871-27.372s7.562,1.493,12.441-1.246A77.227,77.227,0,0,1,1091.719,113.6Z" transform="translate(-1044.145 -81.382)" fill="#723125"/>
      <path id="Path_164" data-name="Path 164" d="M1055.42,96.849c-6.061,8.221-9.353,44.3-8.854,47.622s12.948,13.82,18.81,13.737,12.98-4.487,14.812-6.971,13.205-45.922,12.741-48.8-9.9-11.067-15.592-11.673S1057.252,94.363,1055.42,96.849Z" transform="translate(-1041.795 -73.223)" fill="#ffb882"/>
      <path id="Path_165" data-name="Path 165" d="M1056.83,89.46C1067,92.619,1054,129.513,1054,129.513l-6.62-2.831S1046.676,86.3,1056.83,89.46Z" transform="translate(-1040.948 -74.634)" fill="#723125"/>
      <path id="Path_166" data-name="Path 166" d="M1054.263,105.639c-.5-5.275-8.243-3.929-7.93,1.206s.733,15.136,3.6,13.6S1054.573,108.908,1054.263,105.639Z" transform="translate(-1041.988 -61.76)" fill="#ffb882"/>
      <path id="Path_167" data-name="Path 167" d="M1051.484,106.185c-.274-2.918-4.562-2.174-4.389.667s.4,8.374,1.992,7.524S1051.656,107.992,1051.484,106.185Z" transform="translate(-1041.228 -59.733)" fill="#db5b3e"/>
      <path id="Path_168" data-name="Path 168" d="M1050.618,108.053c-.2-2.1-3.286-1.565-3.163.482s.291,6.029,1.435,5.416S1050.741,109.357,1050.618,108.053Z" transform="translate(-1040.87 -57.366)" fill="#ffb882"/>
      <g id="Group_150" data-name="Group 150" transform="translate(19.466 30.583)">
        <path id="Path_169" data-name="Path 169" d="M1068.264,108.5c.522-2.321-.143-4.389-1.481-4.61s-2.836,1.487-3.352,3.814.146,4.387,1.477,4.608S1067.751,110.83,1068.264,108.5Z" transform="translate(-1044.681 -90.771)" fill="#4f3131"/>
        <path id="Path_170" data-name="Path 170" d="M1064.772,103.678c1.869-.729,3.9,18.574,2.845,20.815-.524,1.117-8.713-1.722-8.713-1.722S1064.433,103.805,1064.772,103.678Z" transform="translate(-1048.992 -90.978)" fill="#ffb882"/>
        <path id="Path_171" data-name="Path 171" d="M1065.11,104c1.127,4.047,2.821,17.9,1.919,19.76-.41.844-5.562-.7-7.674-1.431-.113.408-.185.641-.185.641s8.621,3.376,9.115,2.263C1069.234,123.083,1066.7,104.9,1065.11,104Z" transform="translate(-1048.729 -90.641)" fill="#ea7b59"/>
        <path id="Path_172" data-name="Path 172" d="M1061.08,106.039c.511-2.331-.153-4.391-1.487-4.614s-2.839,1.479-3.354,3.8.146,4.4,1.483,4.624S1060.56,108.362,1061.08,106.039Z" transform="translate(-1051.807 -93.211)" fill="#4f3131"/>
        <path id="Path_173" data-name="Path 173" d="M1066.527,104.679c-3.217,2.259-12.355-1.373-12.548-3.255s.032-3.7,2.355-4.021,12.017-.018,12.829,1.66S1068.01,103.634,1066.527,104.679Z" transform="translate(-1053.924 -97.288)" fill="#93402c"/>
        <path id="Path_174" data-name="Path 174" d="M1063.523,104.742c.7,3.306,8.2,3.76,9.348,2.174s2.006-3.3.784-4.524-7.242-4.853-8.651-3.692S1063.195,103.223,1063.523,104.742Z" transform="translate(-1044.523 -96.115)" fill="#93402c"/>
        <path id="Path_175" data-name="Path 175" d="M1057.6,119.9c-1.877-1.425-.979-6.822-.511-9.079l-.938-.512s-2.02,8.137.255,9.915c2.476,1.931,9.931,5.2,12.208,4.5a5,5,0,0,0,.5-.211C1065.888,124.269,1059.839,121.6,1057.6,119.9Z" transform="translate(-1052.536 -84.386)" fill="#ea7b59"/>
        <path id="Path_176" data-name="Path 176" d="M1061.277,119.086c.149-.432-.663-1.075-1.815-1.439s-2.208-.309-2.357.123.663,1.077,1.816,1.439S1061.127,119.518,1061.277,119.086Z" transform="translate(-1050.792 -77.359)" fill="#ea7b59"/>
      </g>
    </g>
  </g>
</svg>
