<svg xmlns="http://www.w3.org/2000/svg" width="49.974" height="50.997" viewBox="0 0 49.974 50.997">
  <g id="XD" transform="translate(3 3)">
    <g id="Ellipse_37" data-name="Ellipse 37" transform="translate(0)" fill="#da2286" stroke="#fff" stroke-width="3">
      <ellipse cx="21.987" cy="22.498" rx="21.987" ry="22.498" stroke="none"/>
      <ellipse cx="21.987" cy="22.498" rx="23.487" ry="23.998" fill="none"/>
    </g>
    <g id="Group_68" data-name="Group 68" transform="translate(7.327 13.66)">
      <path id="Path_59" data-name="Path 59" d="M88.515,169.361l6.156-9.4-5.578-8.614h4.251l3.613,5.787,3.539-5.787h4.215l-5.6,8.749,6.156,9.265h-4.387l-3.993-6.23-4.006,6.23Z" transform="translate(-88.515 -151.347)" fill="#fff" opacity="0.5"/>
      <path id="Path_60" data-name="Path 60" d="M290.558,169.361h-3.207v-1.917a5.18,5.18,0,0,1-1.886,1.665,4.84,4.84,0,0,1-2.193.547,4.97,4.97,0,0,1-3.852-1.812,7.372,7.372,0,0,1-1.6-5.056,7.287,7.287,0,0,1,1.56-5.044,5.088,5.088,0,0,1,3.944-1.726,4.887,4.887,0,0,1,3.785,1.818v-6.488h3.453v18.014Zm-9.216-6.807a5.972,5.972,0,0,0,.578,3.023,2.609,2.609,0,0,0,2.334,1.352,2.541,2.541,0,0,0,2.027-1.014,4.679,4.679,0,0,0,.836-3.029,5.121,5.121,0,0,0-.811-3.238,2.567,2.567,0,0,0-2.077-.989,2.594,2.594,0,0,0-2.058.977A4.413,4.413,0,0,0,281.342,162.553Z" transform="translate(-261.257 -151.347)" fill="#fff" opacity="0.5"/>
    </g>
  </g>
</svg>
